<svg width="24" height="26" viewBox="0 0 24 26" fill="none" xmlns="http://www.w3.org/2000/svg">
<path d="M9.65003 2.55876H10.175L10.374 2.07376C10.704 1.26776 11.284 0.780762 12 0.780762C12.716 0.780762 13.296 1.26776 13.626 2.07376L13.825 2.55876H20C20.257 2.55876 20.495 2.63876 20.692 2.77376H16.674V6.32976H7.32703V2.77376H3.30803C3.50503 2.63776 3.74303 2.55876 4.00003 2.55876H7.45503H9.65003ZM20.963 3.55576V3.03076C21.123 3.23676 21.219 3.49576 21.219 3.77776V21.9998C21.219 22.2808 21.123 22.5398 20.963 22.7468V22.2218V3.55576ZM20.182 23.0038H20.692C20.4886 23.1442 20.2472 23.2192 20 23.2188H4.00003C3.75291 23.2188 3.5116 23.1439 3.30803 23.0038H3.81803H20.182ZM3.03703 22.2218V22.7468C2.87048 22.5334 2.78002 22.2705 2.78003 21.9998V3.77776C2.78003 3.49576 2.87603 3.23776 3.03603 3.03076V3.55576L3.03703 22.2218ZM16.417 3.55576V2.77376H13.69V2.66676C13.69 1.71676 12.928 0.996761 12 0.996761C11.072 0.996761 10.31 1.71676 10.31 2.66676V2.77376H7.58203V6.11476H16.418V5.33276L16.417 3.55576ZM10.545 17.0788L11.091 17.6128L11.637 17.0788L16.812 12.0188L16.98 12.1838L11.09 17.9418L7.93003 14.8508L8.09703 14.6858L10.545 17.0788Z" fill="#63522B" stroke="#63522B" stroke-width="1.563"/>
</svg>
