<svg width="24" height="20" viewBox="0 0 24 20" fill="none" xmlns="http://www.w3.org/2000/svg">
<path d="M20 2V9L24 5.5L20 2ZM6.75 0C6.55109 0 6.36032 0.079018 6.21967 0.21967C6.07902 0.360323 6 0.551088 6 0.75V19.25C6 19.4489 6.07902 19.6397 6.21967 19.7803C6.36032 19.921 6.55109 20 6.75 20H17.25C17.4489 20 17.6397 19.921 17.7803 19.7803C17.921 19.6397 18 19.4489 18 19.25V0.75C18 0.551088 17.921 0.360323 17.7803 0.21967C17.6397 0.079018 17.4489 0 17.25 0H6.75ZM0 5V6.5H1.5V5H0ZM3 5V6.5H4.5V5H3ZM7.5 1.5H16.5V18.5H7.5V1.5ZM9.25 3C9.14825 2.99474 9.0465 3.01025 8.95093 3.04556C8.85536 3.08088 8.76798 3.13528 8.6941 3.20544C8.62022 3.2756 8.56139 3.36006 8.52119 3.45368C8.48099 3.54729 8.46026 3.64811 8.46026 3.75C8.46026 3.85189 8.48099 3.95271 8.52119 4.04632C8.56139 4.13994 8.62022 4.2244 8.6941 4.29456C8.76798 4.36472 8.85536 4.41912 8.95093 4.45444C9.0465 4.48975 9.14825 4.50526 9.25 4.5H14.75C14.8517 4.50526 14.9535 4.48975 15.0491 4.45444C15.1446 4.41912 15.232 4.36472 15.3059 4.29456C15.3798 4.2244 15.4386 4.13994 15.4788 4.04632C15.519 3.95271 15.5397 3.85189 15.5397 3.75C15.5397 3.64811 15.519 3.54729 15.4788 3.45368C15.4386 3.36006 15.3798 3.2756 15.3059 3.20544C15.232 3.13528 15.1446 3.08088 15.0491 3.04556C14.9535 3.01025 14.8517 2.99474 14.75 3H9.25ZM4 10L0 13.5L4 17V10ZM19.5 13V14.5H21V13H19.5ZM22.5 13V14.5H24V13H22.5Z" fill="#63522B" stroke="#63522B" stroke-width="6.25"/>
</svg>
