<svg width="22" height="22" viewBox="0 0 22 22" fill="none" xmlns="http://www.w3.org/2000/svg">
<path fill-rule="evenodd" clip-rule="evenodd" d="M20 11C20 13.3869 19.0518 15.6761 17.364 17.364C15.6761 19.0518 13.3869 20 11 20C8.61305 20 6.32387 19.0518 4.63604 17.364C2.94821 15.6761 2 13.3869 2 11C2 8.61305 2.94821 6.32387 4.63604 4.63604C6.32387 2.94821 8.61305 2 11 2C13.3869 2 15.6761 2.94821 17.364 4.63604C19.0518 6.32387 20 8.61305 20 11ZM22 11C22 17.075 17.075 22 11 22C4.925 22 0 17.075 0 11C0 4.925 4.925 0 11 0C17.075 0 22 4.925 22 11ZM9.5 16L5 11.5L6.5 10L9.5 13L15.5 7L17 8.5L9.5 16Z" fill="#2C70C1"/>
</svg>
