<svg width="24" height="24" viewBox="0 0 24 24" fill="none" xmlns="http://www.w3.org/2000/svg">
<path d="M9.338 0.000198717C9.338 0.000198717 7.655 -0.0398015 6.706 1.0162C5.758 2.0712 5.903 3.8252 5.903 3.8252C5.903 3.8252 7.586 3.8682 8.535 2.8112C9.484 1.7542 9.338 0.00119912 9.338 0.00119912V0.000198717ZM14.66 0.000198717C14.66 0.000198717 14.515 1.7552 15.463 2.8112C16.411 3.8672 18.093 3.8252 18.093 3.8252C18.093 3.8252 18.24 2.0722 17.292 1.0152C16.343 -0.0398009 14.66 0.000198717 14.66 0.000198717ZM3.463 1.1932C3.463 1.1932 2.349 2.5132 2.512 3.9522C2.675 5.3902 4.052 6.4022 4.052 6.4022L4.059 6.3922C4.349 6.6442 5.419 7.4872 6.597 7.3652C7.976 7.2222 8.97 5.8002 8.97 5.8002C8.97 5.8002 7.728 4.6122 6.35 4.7552C5.564 4.8372 4.912 5.3302 4.49 5.7422C4.78 5.2212 5.094 4.4542 5.003 3.6422C4.84 2.2032 3.463 1.1942 3.463 1.1942V1.1932ZM20.536 1.1932C20.536 1.1932 19.159 2.2052 18.996 3.6432C18.903 4.4562 19.216 5.2212 19.509 5.7422C19.086 5.3292 18.434 4.8372 17.649 4.7552C16.271 4.6122 15.028 5.8022 15.028 5.8022C15.028 5.8022 16.023 7.2242 17.401 7.3672C18.578 7.4892 19.649 6.6432 19.939 6.3932L19.946 6.4032C19.946 6.4032 21.323 5.3902 21.486 3.9522C21.65 2.5122 20.536 1.1932 20.536 1.1932ZM0.768 6.6142C0.768 6.6142 0.0860003 8.2242 0.654 9.5442C1.222 10.8662 2.826 11.3982 2.826 11.3982L2.833 11.3802C3.193 11.4952 4.491 11.8432 5.533 11.2572C6.751 10.5702 7.145 8.8592 7.145 8.8592C7.145 8.8592 5.562 8.2612 4.342 8.9482C3.752 9.2802 3.359 9.8512 3.107 10.3532C3.197 9.7972 3.215 9.1032 2.942 8.4692C2.375 7.1482 0.768 6.6142 0.768 6.6142ZM23.23 6.6142C23.23 6.6142 21.624 7.1482 21.056 8.4692C20.784 9.1012 20.802 9.7972 20.891 10.3532C20.639 9.8512 20.246 9.2802 19.656 8.9482C18.436 8.2612 16.853 8.8592 16.853 8.8592C16.853 8.8592 17.247 10.5712 18.466 11.2592C19.507 11.8442 20.805 11.4972 21.166 11.3822L21.172 11.4002C21.172 11.4002 22.777 10.8662 23.344 9.5452C23.913 8.2232 23.23 6.6142 23.23 6.6142ZM6.536 11.9542C6.536 11.9542 4.892 12.3252 4.205 13.5842C3.874 14.1902 3.829 14.8902 3.868 15.4542C3.665 14.9322 3.33 14.3312 2.781 13.9422C1.633 13.1302 0 13.5582 0 13.5582C0 13.5582 0.226 15.3022 1.374 16.1132C2.521 16.9262 4.156 16.4992 4.156 16.4992L4.153 16.4832C4.513 16.3832 5.796 15.9612 6.383 14.8832C7.069 13.6252 6.536 11.9552 6.536 11.9552V11.9542ZM17.462 11.9542C17.462 11.9542 16.93 13.6252 17.616 14.8842C18.204 15.9612 19.487 16.3842 19.847 16.4842L19.844 16.4992C19.844 16.4992 21.479 16.9272 22.626 16.1152C23.774 15.3032 24 13.5582 24 13.5582C24 13.5582 22.364 13.1302 21.217 13.9422C20.669 14.3322 20.334 14.9322 20.132 15.4552C20.172 14.8902 20.126 14.1902 19.795 13.5832C19.108 12.3252 17.462 11.9552 17.462 11.9552V11.9542ZM7.858 15.3842C7.858 15.3842 6.321 16.1022 5.898 17.4802C5.658 18.2662 5.83 19.0862 6.023 19.6552C5.682 19.1682 5.137 18.5622 4.387 18.3272C3.06 17.9112 1.624 18.8302 1.624 18.8302C1.624 18.8302 2.338 20.4232 3.665 20.8402C4.82 21.2012 6 20.5842 6.302 20.4102C6.893 21.0532 7.6 21.4852 8.356 21.7782C8.097 21.9882 7.868 22.2392 7.704 22.5642C7.68273 22.5986 7.66369 22.6344 7.647 22.6712L7.638 22.6872C7.56355 22.8594 7.54092 23.0496 7.57289 23.2345C7.60486 23.4194 7.69004 23.591 7.818 23.7282C7.95792 23.8774 8.14641 23.9718 8.34966 23.9945C8.5529 24.0172 8.75759 23.9668 8.927 23.8522C9.07182 23.7541 9.18562 23.6168 9.255 23.4562C9.34 23.2592 9.575 23.0662 10.169 22.8902C10.64 22.7502 11.295 22.6552 11.999 22.5572C12.703 22.6552 13.358 22.7502 13.829 22.8902C14.422 23.0662 14.658 23.2602 14.743 23.4562H14.745C14.815 23.6182 14.929 23.7562 15.072 23.8522C15.2137 23.9482 15.3808 23.9997 15.552 24.0002C15.6696 23.9997 15.786 23.9754 15.8939 23.9286C16.0019 23.8819 16.0992 23.8137 16.18 23.7282C16.3095 23.5919 16.3957 23.4202 16.4275 23.2349C16.4594 23.0496 16.4355 22.859 16.359 22.6872H16.36L16.352 22.6712C16.3346 22.6322 16.3145 22.5945 16.292 22.5582C16.1334 22.2549 15.9117 21.9889 15.642 21.7782C16.398 21.4852 17.105 21.0532 17.696 20.4092C17.996 20.5832 19.176 21.2032 20.333 20.8412C21.66 20.4252 22.376 18.8312 22.376 18.8312C22.376 18.8312 20.94 17.9132 19.613 18.3292C18.863 18.5642 18.316 19.1702 17.975 19.6572C18.168 19.0872 18.341 18.2652 18.1 17.4812C17.677 16.1012 16.14 15.3842 16.14 15.3842C16.14 15.3842 15.29 16.9042 15.713 18.2822C15.833 18.6702 16.041 19.0002 16.277 19.2822L16.275 19.2832C15.37 20.1072 13.875 20.4182 12.299 20.6382L11.999 20.6802L11.699 20.6382C10.123 20.4182 8.627 20.1052 7.721 19.2812C7.957 18.9992 8.168 18.6692 8.287 18.2812C8.71 16.9022 7.858 15.3842 7.858 15.3842Z" fill="#2C70C1"/>
</svg>
