<svg width="22" height="23" viewBox="0 0 22 23" fill="none" xmlns="http://www.w3.org/2000/svg">
<path d="M12.557 9.72359C12.609 9.73059 12.663 9.73359 12.719 9.73359C13.097 9.73359 13.509 9.56459 13.946 9.13659C14.319 8.77259 14.774 7.87159 14.572 6.60659C14.402 5.55659 13.597 3.37259 9.805 1.55859C9.826 1.95459 9.713 2.32659 9.559 2.66459C9.393 3.02759 9.158 3.39859 8.93 3.75659L8.913 3.78359C8.207 4.89359 7.439 6.12359 7.742 7.89759L12.557 9.72359ZM12.557 9.72359C12.92 7.26959 12.552 5.47159 11.852 3.64259C11.81 3.5285 11.7454 3.42402 11.6622 3.33533C11.5791 3.24665 11.4789 3.17558 11.3677 3.12634C11.2566 3.07709 11.1366 3.05068 11.0151 3.04866C10.8935 3.04664 10.7727 3.06906 10.66 3.11459L10.653 3.11759C10.4308 3.21429 10.2546 3.39323 10.1614 3.61693C10.0682 3.84063 10.0652 4.09172 10.153 4.31759C10.804 6.02359 11.105 7.58059 10.683 9.88759L12.557 9.72359ZM12.557 9.72359L10.682 9.88759L12.557 9.72359ZM10.682 9.88759C10.4754 9.95371 10.2608 9.99139 10.044 9.99959C9.408 9.99959 8.898 9.79459 8.52 9.44959C8.138 9.09959 7.858 8.57859 7.742 7.89859L10.682 9.88759ZM0.957 14.9996L1.357 14.7006L1.345 14.6846L1.332 14.6696L1.253 14.5806C1.023 14.3206 0.863 14.1386 0.738 13.8786C0.604 13.6006 0.5 13.1996 0.5 12.4996V6.49959C0.5 6.11659 0.624 5.87959 0.774 5.73659C0.929 5.58959 1.158 5.49959 1.434 5.49959C1.712 5.49959 1.94 5.58959 2.095 5.73659C2.245 5.87959 2.37 6.11659 2.37 6.49959V10.6696C2.26121 10.746 2.1636 10.8372 2.08 10.9406C1.87246 11.2012 1.72956 11.5072 1.663 11.8336C1.506 12.5656 1.679 13.4806 2.496 14.3436L4.591 16.6846L4.594 16.6886C4.67556 16.7795 4.77538 16.8522 4.88695 16.9019C4.99852 16.9516 5.11931 16.9772 5.24145 16.977C5.36358 16.9768 5.4843 16.9508 5.59571 16.9008C5.70712 16.8507 5.80672 16.7778 5.888 16.6866C6.04508 16.5108 6.13191 16.2833 6.13191 16.0476C6.13191 15.8119 6.04508 15.5844 5.888 15.4086L5.886 15.4066L3.596 12.8626L3.593 12.8596C3.47111 12.7211 3.40453 12.5426 3.40601 12.3581C3.40749 12.1736 3.47691 11.9961 3.601 11.8596H3.603C3.67825 11.7815 3.77502 11.7276 3.881 11.7046C3.978 11.6866 4.202 11.6816 4.545 12.0376L6.832 14.5876L6.837 14.5926L6.842 14.5986C7.804 15.6106 8.587 16.8386 8.587 18.4996V22.4996H4.804V19.3356L4.707 19.2036C3.74479 17.9033 2.77945 16.6053 1.811 15.3096L1.481 14.8666L1.39 14.7436L1.366 14.7116L1.36 14.7036L1.358 14.7016L0.957 14.9996ZM18.408 12.8596L18.406 12.8626L16.114 15.4066L16.112 15.4086C15.9552 15.5843 15.8685 15.8116 15.8685 16.0471C15.8685 16.2826 15.9552 16.5099 16.112 16.6856C16.1931 16.777 16.2926 16.8501 16.404 16.9004C16.5154 16.9506 16.6361 16.9767 16.7583 16.977C16.8805 16.9772 17.0014 16.9517 17.113 16.902C17.2246 16.8523 17.3245 16.7796 17.406 16.6886L17.409 16.6846L19.504 14.3446C20.321 13.4806 20.494 12.5646 20.338 11.8336C20.2713 11.5072 20.1284 11.2012 19.921 10.9406C19.8375 10.8369 19.7399 10.7453 19.631 10.6686V6.49959C19.631 6.11659 19.755 5.87959 19.905 5.73659C20.06 5.58959 20.288 5.49959 20.565 5.49959C20.842 5.49959 21.071 5.58959 21.225 5.73659C21.375 5.87959 21.5 6.11659 21.5 6.49959V12.4996C21.5 13.1996 21.396 13.5996 21.262 13.8786C21.137 14.1386 20.976 14.3206 20.747 14.5806L20.668 14.6696L20.655 14.6846L20.643 14.7006L21.043 15.0006L20.643 14.7006V14.7016L20.641 14.7036L20.634 14.7116L20.61 14.7436L20.519 14.8666L20.189 15.3096C19.2231 16.6071 18.2577 17.9051 17.293 19.2036L17.196 19.3356V22.4996H13.413V18.4996C13.413 16.8386 14.196 15.6096 15.158 14.5986L15.163 14.5926L15.168 14.5876L17.455 12.0376C17.798 11.6806 18.022 11.6876 18.119 11.7046C18.259 11.7296 18.369 11.8256 18.401 11.8606C18.5241 11.9976 18.5928 12.175 18.5941 12.3593C18.5954 12.5435 18.5292 12.7218 18.408 12.8606V12.8596Z" fill="#2C70C1" stroke="#2C70C1"/>
</svg>
