<svg width="18" height="24" viewBox="0 0 18 24" fill="none" xmlns="http://www.w3.org/2000/svg">
<path d="M5.374 0.900471L4.496 2.03047L4.494 2.03347C4.38645 2.17184 4.24134 2.27634 4.076 2.33447L2.74 2.81247L5.374 0.900471ZM5.374 0.900471C5.714 0.460471 6.246 0.204471 6.802 0.195471C6.99015 0.193018 7.1776 0.218978 7.358 0.272472H7.36L8.716 0.662471C8.886 0.717471 9.079 0.717471 9.248 0.662471L10.605 0.272472H10.606C11.342 0.055472 12.136 0.312472 12.59 0.899472L13.468 2.03047L13.471 2.03347C13.575 2.16347 13.714 2.27647 13.888 2.33447L15.224 2.81247C15.5728 2.93556 15.8767 3.16055 16.0961 3.4583C16.3156 3.75605 16.4406 4.11285 16.455 4.48247L16.499 5.89247C16.499 6.08147 16.555 6.25247 16.669 6.39747L17.477 7.56647L17.479 7.56847C17.913 8.17447 17.913 9.01847 17.479 9.62347L17.477 9.62647L16.665 10.8005L16.664 10.8025C16.5604 10.9482 16.5029 11.1217 16.499 11.3005L16.455 12.7105C16.4407 13.08 16.3158 13.4367 16.0965 13.7344C15.8773 14.0322 15.5736 14.2572 15.225 14.3805L5.374 0.900471ZM5.374 0.900471L15.225 14.3805L5.374 0.900471ZM1.51 4.48047V4.48147L1.466 5.89147C1.4621 6.07025 1.40462 6.24374 1.301 6.38947L1.3 6.39147L0.490002 7.56147C0.294274 7.87537 0.19227 8.23864 0.195991 8.60853C0.199711 8.97843 0.309 9.33958 0.511002 9.64947L1.318 10.8155C1.43071 10.9594 1.49071 11.1377 1.488 11.3205L1.532 12.7305V12.7315C1.552 13.4745 2.046 14.1445 2.762 14.4015L3.462 14.6395L3.652 14.7035L3.582 14.8915L1.059 21.7185C1.02919 21.8018 1.02488 21.8922 1.04661 21.978C1.06833 22.0639 1.11512 22.1413 1.181 22.2005C1.321 22.3235 1.523 22.3545 1.695 22.2775C2.32847 21.983 3.05277 21.9513 3.70956 22.1892C4.36635 22.4272 4.90221 22.9155 5.2 23.5475C5.275 23.7095 5.44 23.8045 5.615 23.8045H5.628C5.827 23.7845 5.988 23.6725 6.045 23.5025L6.046 23.4975L8.57 16.6275L8.596 16.5535L8.666 16.5185L8.71 16.4975L8.722 16.4915L8.735 16.4865C8.90931 16.4307 9.09669 16.4307 9.271 16.4865L10.628 16.8765C11.365 17.0935 12.158 16.8365 12.613 16.2485L13.403 15.2265L13.62 14.9465L13.741 15.2785L15.76 20.7795L15.863 21.0595L15.565 21.0415C15.0631 21.0072 14.5595 21.0775 14.0861 21.2479C13.6128 21.4183 13.1799 21.6851 12.815 22.0315L12.601 22.2375L12.497 21.9585L11.357 18.8935C11.26 18.6395 10.997 18.5275 10.777 18.6145C10.53 18.7135 10.408 18.9795 10.492 19.1865L10.494 19.1925L12.052 23.4535C12.11 23.6135 12.279 23.7415 12.47 23.7605H12.483C12.5698 23.7603 12.6549 23.7358 12.7286 23.6899C12.8022 23.644 12.8616 23.5784 12.9 23.5005C13.1985 22.8695 13.7345 22.3823 14.391 22.1451C15.0475 21.9079 15.7711 21.94 16.404 22.2345L1.51 4.48047ZM1.509 4.48047L16.403 22.2345L1.509 4.48047ZM1.509 4.48047C1.52329 4.11097 1.64817 3.75426 1.86746 3.45652C2.08675 3.15878 2.39037 2.93372 2.739 2.81047L1.509 4.48047ZM16.403 22.2345C16.487 22.2718 16.58 22.2842 16.6709 22.2704C16.7618 22.2566 16.8468 22.217 16.916 22.1565C16.9817 22.0974 17.0284 22.0201 17.0501 21.9345C17.0718 21.8489 17.0676 21.7587 17.038 21.6755L14.536 14.8255L14.468 14.6395L14.656 14.5745L15.226 14.3795L16.403 22.2345ZM16.403 22.2345L15.225 14.3795L16.403 22.2345ZM4.692 15.3775L4.477 15.1035L4.356 15.4305L2.338 20.8655L2.24 21.1285H2.784C3.203 21.1285 3.618 21.1915 4.01 21.3335C4.497 21.5235 4.931 21.7715 5.28 22.1165L5.495 22.3295L5.6 22.0445L7.377 17.2185L7.474 16.9555H7.194C7.13 16.9555 7.067 16.9615 7.014 16.9665H7.01C6.96188 16.9724 6.91348 16.9757 6.865 16.9765C6.58266 16.9757 6.30409 16.9117 6.04971 16.7892C5.79534 16.6667 5.57163 16.4887 5.395 16.2685L4.692 15.3775ZM13.138 8.60647C13.138 6.34447 11.272 4.49747 8.993 4.49747C6.715 4.49747 4.849 6.34447 4.849 8.60647C4.849 10.8685 6.715 12.7155 8.993 12.7155C11.272 12.7155 13.138 10.8685 13.138 8.60547V8.60647ZM8.53 7.52047C8.53 7.26047 8.726 7.06347 8.993 7.06347C9.26 7.06347 9.456 7.26047 9.456 7.52047V9.69447C9.456 9.95447 9.26 10.1515 8.993 10.1515C8.93215 10.1535 8.87153 10.1432 8.81482 10.121C8.75812 10.0988 8.70652 10.0653 8.66319 10.0226C8.61986 9.9798 8.58571 9.92865 8.56281 9.87224C8.53991 9.81583 8.52874 9.75534 8.53 9.69447V7.52047Z" fill="#2C70C1" stroke="#2C70C1" stroke-width="0.391"/>
</svg>
